<mxfile host="app.diagrams.net" modified="2022-12-09T09:24:57.683Z" agent="5.0 (Macintosh; Intel Mac OS X 10_15_7) AppleWebKit/537.36 (KHTML, like Gecko) Chrome/107.0.0.0 Safari/537.36" etag="MGGK3ejg9-4JEvcAm9V3" version="20.6.2" type="github">
  <diagram id="C5RBs43oDa-KdzZeNtuy" name="Page-1">
    <mxGraphModel dx="2186" dy="623" grid="1" gridSize="10" guides="1" tooltips="1" connect="1" arrows="1" fold="1" page="1" pageScale="1" pageWidth="827" pageHeight="1169" math="0" shadow="0">
      <root>
        <mxCell id="WIyWlLk6GJQsqaUBKTNV-0" />
        <mxCell id="WIyWlLk6GJQsqaUBKTNV-1" parent="WIyWlLk6GJQsqaUBKTNV-0" />
        <mxCell id="yTb7y6Cj0jWgky7ifyMO-0" value="Calculator" style="swimlane;fontStyle=2;align=center;verticalAlign=top;childLayout=stackLayout;horizontal=1;startSize=26;horizontalStack=0;resizeParent=1;resizeLast=0;collapsible=1;marginBottom=0;rounded=0;shadow=0;strokeWidth=1;" vertex="1" parent="WIyWlLk6GJQsqaUBKTNV-1">
          <mxGeometry x="220" y="120" width="160" height="138" as="geometry">
            <mxRectangle x="230" y="140" width="160" height="26" as="alternateBounds" />
          </mxGeometry>
        </mxCell>
        <mxCell id="yTb7y6Cj0jWgky7ifyMO-1" value="InputNo: java.lang.Double" style="text;align=left;verticalAlign=top;spacingLeft=4;spacingRight=4;overflow=hidden;rotatable=0;points=[[0,0.5],[1,0.5]];portConstraint=eastwest;" vertex="1" parent="yTb7y6Cj0jWgky7ifyMO-0">
          <mxGeometry y="26" width="160" height="26" as="geometry" />
        </mxCell>
        <mxCell id="yTb7y6Cj0jWgky7ifyMO-2" value="Operator: java.lang.char" style="text;align=left;verticalAlign=top;spacingLeft=4;spacingRight=4;overflow=hidden;rotatable=0;points=[[0,0.5],[1,0.5]];portConstraint=eastwest;rounded=0;shadow=0;html=0;" vertex="1" parent="yTb7y6Cj0jWgky7ifyMO-0">
          <mxGeometry y="52" width="160" height="26" as="geometry" />
        </mxCell>
        <mxCell id="yTb7y6Cj0jWgky7ifyMO-3" value="Operand: java.lang.Double" style="text;align=left;verticalAlign=top;spacingLeft=4;spacingRight=4;overflow=hidden;rotatable=0;points=[[0,0.5],[1,0.5]];portConstraint=eastwest;rounded=0;shadow=0;html=0;" vertex="1" parent="yTb7y6Cj0jWgky7ifyMO-0">
          <mxGeometry y="78" width="160" height="26" as="geometry" />
        </mxCell>
        <mxCell id="yTb7y6Cj0jWgky7ifyMO-4" value="" style="line;html=1;strokeWidth=1;align=left;verticalAlign=middle;spacingTop=-1;spacingLeft=3;spacingRight=3;rotatable=0;labelPosition=right;points=[];portConstraint=eastwest;" vertex="1" parent="yTb7y6Cj0jWgky7ifyMO-0">
          <mxGeometry y="104" width="160" height="8" as="geometry" />
        </mxCell>
        <mxCell id="yTb7y6Cj0jWgky7ifyMO-5" value="Solution:Â " style="text;align=left;verticalAlign=top;spacingLeft=4;spacingRight=4;overflow=hidden;rotatable=0;points=[[0,0.5],[1,0.5]];portConstraint=eastwest;" vertex="1" parent="yTb7y6Cj0jWgky7ifyMO-0">
          <mxGeometry y="112" width="160" height="26" as="geometry" />
        </mxCell>
        <mxCell id="yTb7y6Cj0jWgky7ifyMO-6" value="Operands" style="swimlane;fontStyle=0;align=center;verticalAlign=top;childLayout=stackLayout;horizontal=1;startSize=26;horizontalStack=0;resizeParent=1;resizeLast=0;collapsible=1;marginBottom=0;rounded=0;shadow=0;strokeWidth=1;" vertex="1" parent="WIyWlLk6GJQsqaUBKTNV-1">
          <mxGeometry x="80" y="360" width="200" height="138" as="geometry">
            <mxRectangle x="120" y="360" width="160" height="26" as="alternateBounds" />
          </mxGeometry>
        </mxCell>
        <mxCell id="yTb7y6Cj0jWgky7ifyMO-7" value="value: java.lang.Double" style="text;align=left;verticalAlign=top;spacingLeft=4;spacingRight=4;overflow=hidden;rotatable=0;points=[[0,0.5],[1,0.5]];portConstraint=eastwest;" vertex="1" parent="yTb7y6Cj0jWgky7ifyMO-6">
          <mxGeometry y="26" width="200" height="26" as="geometry" />
        </mxCell>
        <mxCell id="yTb7y6Cj0jWgky7ifyMO-8" value="+ Operand(java.lang.Double)&#xa;" style="text;align=left;verticalAlign=top;spacingLeft=4;spacingRight=4;overflow=hidden;rotatable=0;points=[[0,0.5],[1,0.5]];portConstraint=eastwest;rounded=0;shadow=0;html=0;" vertex="1" parent="yTb7y6Cj0jWgky7ifyMO-6">
          <mxGeometry y="52" width="200" height="26" as="geometry" />
        </mxCell>
        <mxCell id="yTb7y6Cj0jWgky7ifyMO-9" value="" style="line;html=1;strokeWidth=1;align=left;verticalAlign=middle;spacingTop=-1;spacingLeft=3;spacingRight=3;rotatable=0;labelPosition=right;points=[];portConstraint=eastwest;" vertex="1" parent="yTb7y6Cj0jWgky7ifyMO-6">
          <mxGeometry y="78" width="200" height="8" as="geometry" />
        </mxCell>
        <mxCell id="yTb7y6Cj0jWgky7ifyMO-10" value="+execute(java.util.Stack): double" style="text;align=left;verticalAlign=top;spacingLeft=4;spacingRight=4;overflow=hidden;rotatable=0;points=[[0,0.5],[1,0.5]];portConstraint=eastwest;" vertex="1" parent="yTb7y6Cj0jWgky7ifyMO-6">
          <mxGeometry y="86" width="200" height="26" as="geometry" />
        </mxCell>
        <mxCell id="yTb7y6Cj0jWgky7ifyMO-11" value="" style="endArrow=block;endSize=10;endFill=0;shadow=0;strokeWidth=1;rounded=0;edgeStyle=elbowEdgeStyle;elbow=vertical;" edge="1" parent="WIyWlLk6GJQsqaUBKTNV-1" source="yTb7y6Cj0jWgky7ifyMO-6" target="yTb7y6Cj0jWgky7ifyMO-0">
          <mxGeometry width="160" relative="1" as="geometry">
            <mxPoint x="200" y="203" as="sourcePoint" />
            <mxPoint x="200" y="203" as="targetPoint" />
          </mxGeometry>
        </mxCell>
        <mxCell id="yTb7y6Cj0jWgky7ifyMO-12" value="Operator" style="swimlane;fontStyle=0;align=center;verticalAlign=top;childLayout=stackLayout;horizontal=1;startSize=26;horizontalStack=0;resizeParent=1;resizeLast=0;collapsible=1;marginBottom=0;rounded=0;shadow=0;strokeWidth=1;" vertex="1" parent="WIyWlLk6GJQsqaUBKTNV-1">
          <mxGeometry x="330" y="360" width="200" height="98" as="geometry">
            <mxRectangle x="340" y="380" width="170" height="26" as="alternateBounds" />
          </mxGeometry>
        </mxCell>
        <mxCell id="yTb7y6Cj0jWgky7ifyMO-13" value="+ Operator()&#xa;+ execute(java.util.Stack): double&#xa;+printError(java.lang.String): void" style="text;align=left;verticalAlign=top;spacingLeft=4;spacingRight=4;overflow=hidden;rotatable=0;points=[[0,0.5],[1,0.5]];portConstraint=eastwest;" vertex="1" parent="yTb7y6Cj0jWgky7ifyMO-12">
          <mxGeometry y="26" width="200" height="64" as="geometry" />
        </mxCell>
        <mxCell id="yTb7y6Cj0jWgky7ifyMO-14" value="" style="line;html=1;strokeWidth=1;align=left;verticalAlign=middle;spacingTop=-1;spacingLeft=3;spacingRight=3;rotatable=0;labelPosition=right;points=[];portConstraint=eastwest;" vertex="1" parent="yTb7y6Cj0jWgky7ifyMO-12">
          <mxGeometry y="90" width="200" height="8" as="geometry" />
        </mxCell>
        <mxCell id="yTb7y6Cj0jWgky7ifyMO-15" value="" style="endArrow=block;endSize=10;endFill=0;shadow=0;strokeWidth=1;rounded=0;edgeStyle=elbowEdgeStyle;elbow=vertical;" edge="1" parent="WIyWlLk6GJQsqaUBKTNV-1" source="yTb7y6Cj0jWgky7ifyMO-12" target="yTb7y6Cj0jWgky7ifyMO-0">
          <mxGeometry width="160" relative="1" as="geometry">
            <mxPoint x="210" y="373" as="sourcePoint" />
            <mxPoint x="310" y="271" as="targetPoint" />
          </mxGeometry>
        </mxCell>
        <mxCell id="yTb7y6Cj0jWgky7ifyMO-16" value="Main" style="swimlane;fontStyle=0;align=center;verticalAlign=top;childLayout=stackLayout;horizontal=1;startSize=26;horizontalStack=0;resizeParent=1;resizeLast=0;collapsible=1;marginBottom=0;rounded=0;shadow=0;strokeWidth=1;" vertex="1" parent="WIyWlLk6GJQsqaUBKTNV-1">
          <mxGeometry x="508" y="120" width="272" height="216" as="geometry">
            <mxRectangle x="550" y="140" width="160" height="26" as="alternateBounds" />
          </mxGeometry>
        </mxCell>
        <mxCell id="yTb7y6Cj0jWgky7ifyMO-17" value="+main(String[] args): static void" style="text;align=left;verticalAlign=top;spacingLeft=4;spacingRight=4;overflow=hidden;rotatable=0;points=[[0,0.5],[1,0.5]];portConstraint=eastwest;" vertex="1" parent="yTb7y6Cj0jWgky7ifyMO-16">
          <mxGeometry y="26" width="272" height="26" as="geometry" />
        </mxCell>
        <mxCell id="yTb7y6Cj0jWgky7ifyMO-18" value="+ Calculator()" style="text;align=left;verticalAlign=top;spacingLeft=4;spacingRight=4;overflow=hidden;rotatable=0;points=[[0,0.5],[1,0.5]];portConstraint=eastwest;rounded=0;shadow=0;html=0;" vertex="1" parent="yTb7y6Cj0jWgky7ifyMO-16">
          <mxGeometry y="52" width="272" height="26" as="geometry" />
        </mxCell>
        <mxCell id="yTb7y6Cj0jWgky7ifyMO-19" value="+ calculate(java.lang.String[] : java.lang.Double" style="text;align=left;verticalAlign=top;spacingLeft=4;spacingRight=4;overflow=hidden;rotatable=0;points=[[0,0.5],[1,0.5]];portConstraint=eastwest;rounded=0;shadow=0;html=0;" vertex="1" parent="yTb7y6Cj0jWgky7ifyMO-16">
          <mxGeometry y="78" width="272" height="26" as="geometry" />
        </mxCell>
        <mxCell id="yTb7y6Cj0jWgky7ifyMO-20" value="" style="line;html=1;strokeWidth=1;align=left;verticalAlign=middle;spacingTop=-1;spacingLeft=3;spacingRight=3;rotatable=0;labelPosition=right;points=[];portConstraint=eastwest;" vertex="1" parent="yTb7y6Cj0jWgky7ifyMO-16">
          <mxGeometry y="104" width="272" height="8" as="geometry" />
        </mxCell>
        <mxCell id="yTb7y6Cj0jWgky7ifyMO-21" value="" style="endArrow=open;shadow=0;strokeWidth=1;rounded=0;endFill=1;edgeStyle=elbowEdgeStyle;elbow=vertical;" edge="1" parent="WIyWlLk6GJQsqaUBKTNV-1" source="yTb7y6Cj0jWgky7ifyMO-0" target="yTb7y6Cj0jWgky7ifyMO-16">
          <mxGeometry x="0.5" y="41" relative="1" as="geometry">
            <mxPoint x="380" y="192" as="sourcePoint" />
            <mxPoint x="540" y="192" as="targetPoint" />
            <mxPoint x="-40" y="32" as="offset" />
          </mxGeometry>
        </mxCell>
        <mxCell id="yTb7y6Cj0jWgky7ifyMO-22" value="" style="resizable=0;align=left;verticalAlign=bottom;labelBackgroundColor=none;fontSize=12;" connectable="0" vertex="1" parent="yTb7y6Cj0jWgky7ifyMO-21">
          <mxGeometry x="-1" relative="1" as="geometry">
            <mxPoint y="4" as="offset" />
          </mxGeometry>
        </mxCell>
        <mxCell id="yTb7y6Cj0jWgky7ifyMO-23" value="1" style="resizable=0;align=right;verticalAlign=bottom;labelBackgroundColor=none;fontSize=12;" connectable="0" vertex="1" parent="yTb7y6Cj0jWgky7ifyMO-21">
          <mxGeometry x="1" relative="1" as="geometry">
            <mxPoint x="-7" y="4" as="offset" />
          </mxGeometry>
        </mxCell>
        <mxCell id="yTb7y6Cj0jWgky7ifyMO-25" value="AddOperator" style="swimlane;whiteSpace=wrap;html=1;" vertex="1" parent="WIyWlLk6GJQsqaUBKTNV-1">
          <mxGeometry x="-10" y="520" width="190" height="110" as="geometry" />
        </mxCell>
        <mxCell id="yTb7y6Cj0jWgky7ifyMO-26" value="+AddOperator()&lt;br&gt;+ execute(java.util.Stack) : double" style="whiteSpace=wrap;html=1;align=left;" vertex="1" parent="yTb7y6Cj0jWgky7ifyMO-25">
          <mxGeometry y="30" width="190" height="60" as="geometry" />
        </mxCell>
        <mxCell id="yTb7y6Cj0jWgky7ifyMO-27" value="SquareRootOperator" style="swimlane;whiteSpace=wrap;html=1;" vertex="1" parent="WIyWlLk6GJQsqaUBKTNV-1">
          <mxGeometry x="10" y="760" width="200" height="110" as="geometry" />
        </mxCell>
        <mxCell id="yTb7y6Cj0jWgky7ifyMO-28" value="+SquareRootOperator()&lt;br&gt;+ execute(java.util.Stack) : double" style="whiteSpace=wrap;html=1;align=left;" vertex="1" parent="yTb7y6Cj0jWgky7ifyMO-27">
          <mxGeometry y="30" width="200" height="60" as="geometry" />
        </mxCell>
        <mxCell id="yTb7y6Cj0jWgky7ifyMO-29" value="ReciprocalOperator" style="swimlane;whiteSpace=wrap;html=1;" vertex="1" parent="WIyWlLk6GJQsqaUBKTNV-1">
          <mxGeometry x="250" y="760" width="200" height="110" as="geometry" />
        </mxCell>
        <mxCell id="yTb7y6Cj0jWgky7ifyMO-30" value="+ReciprocalOperator()&lt;br&gt;+ execute(java.util.Stack) : double" style="whiteSpace=wrap;html=1;align=left;" vertex="1" parent="yTb7y6Cj0jWgky7ifyMO-29">
          <mxGeometry y="30" width="200" height="60" as="geometry" />
        </mxCell>
        <mxCell id="yTb7y6Cj0jWgky7ifyMO-31" value="SqaureOperator" style="swimlane;whiteSpace=wrap;html=1;" vertex="1" parent="WIyWlLk6GJQsqaUBKTNV-1">
          <mxGeometry x="508" y="760" width="200" height="110" as="geometry" />
        </mxCell>
        <mxCell id="yTb7y6Cj0jWgky7ifyMO-32" value="+SquareOperator()&lt;br&gt;+ execute(java.util.Stack) : double" style="whiteSpace=wrap;html=1;align=left;" vertex="1" parent="yTb7y6Cj0jWgky7ifyMO-31">
          <mxGeometry y="30" width="200" height="60" as="geometry" />
        </mxCell>
        <mxCell id="yTb7y6Cj0jWgky7ifyMO-33" value="MultiplyOperator" style="swimlane;whiteSpace=wrap;html=1;" vertex="1" parent="WIyWlLk6GJQsqaUBKTNV-1">
          <mxGeometry x="420" y="520" width="190" height="110" as="geometry" />
        </mxCell>
        <mxCell id="yTb7y6Cj0jWgky7ifyMO-34" value="+MultiplyOperator()&lt;br&gt;+ execute(java.util.Stack) : double" style="whiteSpace=wrap;html=1;align=left;" vertex="1" parent="yTb7y6Cj0jWgky7ifyMO-33">
          <mxGeometry y="25" width="190" height="60" as="geometry" />
        </mxCell>
        <mxCell id="yTb7y6Cj0jWgky7ifyMO-35" style="edgeStyle=orthogonalEdgeStyle;rounded=0;orthogonalLoop=1;jettySize=auto;html=1;exitX=1;exitY=0.5;exitDx=0;exitDy=0;entryX=1;entryY=0.5;entryDx=0;entryDy=0;" edge="1" parent="yTb7y6Cj0jWgky7ifyMO-33" source="yTb7y6Cj0jWgky7ifyMO-33" target="yTb7y6Cj0jWgky7ifyMO-34">
          <mxGeometry relative="1" as="geometry" />
        </mxCell>
        <mxCell id="yTb7y6Cj0jWgky7ifyMO-36" value="DivideOperator" style="swimlane;whiteSpace=wrap;html=1;align=center;" vertex="1" parent="WIyWlLk6GJQsqaUBKTNV-1">
          <mxGeometry x="620" y="520" width="190" height="110" as="geometry" />
        </mxCell>
        <mxCell id="yTb7y6Cj0jWgky7ifyMO-37" value="+DivideOperator()&lt;br&gt;+ execute(java.util.Stack) : double" style="whiteSpace=wrap;html=1;align=left;" vertex="1" parent="yTb7y6Cj0jWgky7ifyMO-36">
          <mxGeometry y="25" width="190" height="50" as="geometry" />
        </mxCell>
        <mxCell id="yTb7y6Cj0jWgky7ifyMO-38" value="SubtractOperator" style="swimlane;whiteSpace=wrap;html=1;" vertex="1" parent="WIyWlLk6GJQsqaUBKTNV-1">
          <mxGeometry x="200" y="520" width="190" height="110" as="geometry" />
        </mxCell>
        <mxCell id="yTb7y6Cj0jWgky7ifyMO-39" value="+SubtractOperator()&lt;br&gt;+ execute(java.util.Stack) : double" style="whiteSpace=wrap;html=1;align=left;" vertex="1" parent="yTb7y6Cj0jWgky7ifyMO-38">
          <mxGeometry y="20" width="190" height="60" as="geometry" />
        </mxCell>
        <mxCell id="yTb7y6Cj0jWgky7ifyMO-40" value="" style="endArrow=classic;html=1;rounded=0;exitX=0.895;exitY=-0.036;exitDx=0;exitDy=0;exitPerimeter=0;" edge="1" parent="WIyWlLk6GJQsqaUBKTNV-1" source="yTb7y6Cj0jWgky7ifyMO-27">
          <mxGeometry relative="1" as="geometry">
            <mxPoint x="150" y="669" as="sourcePoint" />
            <mxPoint x="370" y="460" as="targetPoint" />
          </mxGeometry>
        </mxCell>
        <mxCell id="yTb7y6Cj0jWgky7ifyMO-41" value="" style="shape=message;html=1;outlineConnect=0;" vertex="1" parent="yTb7y6Cj0jWgky7ifyMO-40">
          <mxGeometry width="20" height="14" relative="1" as="geometry">
            <mxPoint x="-10" y="-7" as="offset" />
          </mxGeometry>
        </mxCell>
        <mxCell id="yTb7y6Cj0jWgky7ifyMO-42" value="" style="endArrow=classic;html=1;rounded=0;exitX=0.635;exitY=0;exitDx=0;exitDy=0;exitPerimeter=0;entryX=0.25;entryY=1;entryDx=0;entryDy=0;" edge="1" parent="WIyWlLk6GJQsqaUBKTNV-1" source="yTb7y6Cj0jWgky7ifyMO-29" target="yTb7y6Cj0jWgky7ifyMO-12">
          <mxGeometry width="50" height="50" relative="1" as="geometry">
            <mxPoint x="390" y="780" as="sourcePoint" />
            <mxPoint x="190" y="510" as="targetPoint" />
          </mxGeometry>
        </mxCell>
        <mxCell id="yTb7y6Cj0jWgky7ifyMO-43" value="" style="endArrow=classic;html=1;rounded=0;exitX=0.368;exitY=0;exitDx=0;exitDy=0;exitPerimeter=0;" edge="1" parent="WIyWlLk6GJQsqaUBKTNV-1" source="yTb7y6Cj0jWgky7ifyMO-33">
          <mxGeometry width="50" height="50" relative="1" as="geometry">
            <mxPoint x="390" y="630" as="sourcePoint" />
            <mxPoint x="490" y="460" as="targetPoint" />
          </mxGeometry>
        </mxCell>
        <mxCell id="yTb7y6Cj0jWgky7ifyMO-44" value="" style="endArrow=classic;html=1;rounded=0;exitX=0.25;exitY=0;exitDx=0;exitDy=0;entryX=1;entryY=1;entryDx=0;entryDy=0;" edge="1" parent="WIyWlLk6GJQsqaUBKTNV-1" source="yTb7y6Cj0jWgky7ifyMO-36" target="yTb7y6Cj0jWgky7ifyMO-12">
          <mxGeometry width="50" height="50" relative="1" as="geometry">
            <mxPoint x="390" y="630" as="sourcePoint" />
            <mxPoint x="280" y="480" as="targetPoint" />
          </mxGeometry>
        </mxCell>
        <mxCell id="yTb7y6Cj0jWgky7ifyMO-45" value="" style="endArrow=classic;html=1;rounded=0;exitX=0.411;exitY=0.009;exitDx=0;exitDy=0;exitPerimeter=0;" edge="1" parent="WIyWlLk6GJQsqaUBKTNV-1" source="yTb7y6Cj0jWgky7ifyMO-25">
          <mxGeometry width="50" height="50" relative="1" as="geometry">
            <mxPoint x="390" y="630" as="sourcePoint" />
            <mxPoint x="340" y="460" as="targetPoint" />
          </mxGeometry>
        </mxCell>
        <mxCell id="yTb7y6Cj0jWgky7ifyMO-46" value="" style="endArrow=classic;html=1;rounded=0;" edge="1" parent="WIyWlLk6GJQsqaUBKTNV-1">
          <mxGeometry width="50" height="50" relative="1" as="geometry">
            <mxPoint x="560" y="750" as="sourcePoint" />
            <mxPoint x="440" y="460" as="targetPoint" />
          </mxGeometry>
        </mxCell>
      </root>
    </mxGraphModel>
  </diagram>
</mxfile>
